<svg width="157" height="110" viewBox="0 0 157 110" fill="none" xmlns="http://www.w3.org/2000/svg">
<path fill-rule="evenodd" clip-rule="evenodd" d="M90.0136 32.7955V29.3066H143.394V32.7955H90.0136ZM125.599 36.2845H90.0127V39.7734H125.599V36.2845ZM90.0127 50.2398H125.599V53.7287H90.0127V50.2398ZM90.0127 63.8468H125.599V67.3357H90.0127V63.8468ZM143.393 73.6158H90.0127V70.1269H143.393V73.6158ZM90.0127 80.9422H143.393V77.4533H90.0127V80.9422ZM143.393 46.7513H90.0127V43.2624H143.393V46.7513ZM90.0127 60.7066H143.393V57.2177H90.0127V60.7066Z" fill="#C4C4C4"/>
<rect x="1.5" y="1.5" width="154" height="106.9" rx="3.5" stroke="#C4C4C4" stroke-width="3"/>
<path d="M51.2878 69.6688C60.2477 69.6688 67.5111 62.4054 67.5111 53.4455C67.5111 44.4856 60.2477 37.2222 51.2878 37.2222C42.3279 37.2222 35.0645 44.4856 35.0645 53.4455C35.0645 62.4054 42.3279 69.6688 51.2878 69.6688Z" stroke="#C4C4C4" stroke-width="2" stroke-miterlimit="10"/>
<path d="M26.6963 83.8617C29.1895 79.5462 32.7745 75.9628 37.0911 73.4715C41.4077 70.9802 46.3039 69.6686 51.2879 69.6687C56.2718 69.6688 61.168 70.9804 65.4845 73.4718C69.8011 75.9632 73.386 79.5467 75.8791 83.8623" stroke="#C4C4C4" stroke-width="2" stroke-linecap="round" stroke-linejoin="round"/>
<rect x="19.8408" y="24.0269" width="62.8933" height="62.8933" rx="4" stroke="#C4C4C4" stroke-width="2"/>
</svg>
